<svg xmlns="http://www.w3.org/2000/svg" viewBox="0 0 52.28 52.28"><defs><style>.cls-1{fill:#3c39cb;}</style></defs><g id="레이어_2" data-name="레이어 2"><g id="Layer_1" data-name="Layer 1"><path class="cls-1" d="M41.82,0H10.46A10.49,10.49,0,0,0,0,10.46V41.82A10.49,10.49,0,0,0,10.46,52.28H41.82A10.49,10.49,0,0,0,52.28,41.82V10.46A10.49,10.49,0,0,0,41.82,0Zm-.19,20.71L24.79,37.55a4.16,4.16,0,0,1-3,1.21,4.25,4.25,0,0,1-3-1.21l-8.42-8.41a4.24,4.24,0,0,1,6-6l5.43,5.43L35.67,14.75a4.21,4.21,0,1,1,6,6Z"/></g></g></svg>