<?xml version="1.0" encoding="utf-8"?>
<!-- Generator: Adobe Illustrator 16.0.0, SVG Export Plug-In . SVG Version: 6.00 Build 0)  -->
<!DOCTYPE svg PUBLIC "-//W3C//DTD SVG 1.1//EN" "http://www.w3.org/Graphics/SVG/1.1/DTD/svg11.dtd">
<svg version="1.1" id="Layer_1" xmlns="http://www.w3.org/2000/svg" xmlns:xlink="http://www.w3.org/1999/xlink" x="0px" y="0px"
	 width="256px" height="215px" viewBox="0 0 256 215" enable-background="new 0 0 256 215" xml:space="preserve">
<g>
	<path fill="#3C39CB" stroke="#000000" stroke-width="9" stroke-miterlimit="10" d="M8,137.332V164
		c0,5.887,4.777,10.668,10.668,10.668h218.664c5.891,0,10.668-4.781,10.668-10.668v-26.668H8z M8,137.332"/>
	<path fill="#D5DBE1" d="M146.668,174.668c0,0,2.613,18.824,15.785,32h0.215H93.332c13.336-13.336,15.789-32,15.789-32H146.668z
		 M146.668,174.668"/>
	<path fill="#A5A5A5" d="M146.668,174.668c0,0,2.613,18.824,15.785,32h0.215H93.332c13.336-13.336,15.789-32,15.789-32H146.668z
		 M146.668,174.668"/>
	<path d="M237.332,1H18.668C8.375,1,0,9.707,0,20v144c0,10.293,8.375,19,18.668,19h80.135c-1.957,5-5.364,12.425-11.123,18.178
		c-2.293,2.285-2.965,5.813-1.738,8.798C87.18,212.964,90.09,215,93.332,215h69.336c4.414,0,8-3.752,8-8.166
		c0-2.723-1.355-5.038-3.438-6.468c-5.17-5.536-8.331-12.366-10.2-17.366h80.302c10.293,0,18.668-8.707,18.668-19V20
		C256,9.707,247.625,1,237.332,1z M18.668,17h218.664c1.473,0,2.668,1.527,2.668,3v109H16V20C16,18.527,17.195,17,18.668,17z
		 M146.699,199h-37.57c3.286-6,5.271-12,6.434-16h24.697C141.434,187,143.426,193,146.699,199z M237.332,167H18.668
		c-1.473,0-2.668-1.527-2.668-3v-19h224v19C240,165.473,238.805,167,237.332,167z"/>
</g>
</svg>
