<?xml version="1.0" encoding="utf-8"?>
<!-- Generator: Adobe Illustrator 25.4.1, SVG Export Plug-In . SVG Version: 6.00 Build 0)  -->
<svg version="1.1" id="Layer_1" xmlns="http://www.w3.org/2000/svg" xmlns:xlink="http://www.w3.org/1999/xlink" x="0px" y="0px"
	 viewBox="0 0 262 207" style="enable-background:new 0 0 262 207;" xml:space="preserve">
<style type="text/css">
	.st0{fill:none;}
	.st1{fill:#ffffff;}
</style>
<g id="레이어_2_00000034788409732004167560000013372583230648985787_">
	<g id="Capa_1">
		<rect x="27.5" class="st0" width="207" height="207"/>
		<path class="st1" d="M176.5,73.1c3.8,0,7.5,0.8,10.9,2.4c1.5,0.7,3.3,0,4-1.5c0.2-0.4,0.3-0.9,0.3-1.4
			c-0.3-6.5-5.6-11.6-12.1-11.6H70.3c-6.7,0-12.1,5.4-12.1,12.1v30.4c0,6.7,5.4,12.1,12.1,12.1h69.8c1.7,0,3-1.4,3-3c0,0,0,0,0,0v-3
			c0-3.9,1.9-7.6,5.1-9.8c0.7-0.5,1.2-1.3,1.3-2.1C150.9,83.7,162.6,73.2,176.5,73.1z M86.2,88.7c1.4,0.9,1.7,2.8,0.8,4.2
			c-0.8,1.2-2.5,1.7-3.8,1l-0.7-0.4v0.8c-0.1,1.7-1.5,3-3.2,2.9c-1.6-0.1-2.9-1.3-2.9-2.9v-0.8L75.7,94c-1.4,0.9-3.3,0.4-4.2-1
			c-0.9-1.4-0.4-3.3,1-4.2c0,0,0.1-0.1,0.1-0.1l0.7-0.4l-0.7-0.4c-1.5-0.8-2-2.6-1.2-4.1c0.8-1.5,2.6-2,4.1-1.2
			c0.1,0,0.1,0.1,0.2,0.1l0.7,0.4v-0.8c-0.1-1.7,1.2-3.1,2.9-3.2c1.7-0.1,3.1,1.2,3.2,2.9c0,0.1,0,0.2,0,0.2v0.8l0.7-0.4
			c1.5-0.7,3.3-0.1,4.1,1.4c0.7,1.4,0.2,3-1.1,3.9l-0.7,0.4L86.2,88.7z M110.4,88.7c1.4,0.9,1.7,2.8,0.8,4.2c-0.8,1.2-2.5,1.7-3.8,1
			l-0.7-0.4v0.8c-0.1,1.7-1.5,3-3.2,2.9c-1.6-0.1-2.9-1.3-2.9-2.9v-0.8L99.9,94c-1.4,0.9-3.3,0.4-4.2-1c-0.9-1.4-0.4-3.3,1-4.2
			c0,0,0.1-0.1,0.1-0.1l0.7-0.4l-0.7-0.4c-1.5-0.8-2-2.6-1.2-4.1c0.8-1.5,2.6-2,4.1-1.2c0.1,0,0.1,0.1,0.2,0.1l0.7,0.4v-0.8
			c-0.1-1.7,1.2-3.1,2.9-3.2c1.7-0.1,3.1,1.2,3.2,2.9c0,0.1,0,0.2,0,0.2v0.8l0.7-0.4c1.5-0.7,3.3-0.1,4.1,1.4c0.7,1.4,0.2,3-1.1,3.9
			l-0.7,0.4L110.4,88.7z M134.7,88.7c1.4,0.9,1.7,2.8,0.8,4.2c-0.8,1.2-2.5,1.7-3.8,1l-0.7-0.4v0.8c-0.1,1.7-1.5,3-3.2,2.9
			c-1.6-0.1-2.9-1.3-2.9-2.9v-0.8l-0.7,0.4c-1.4,0.9-3.3,0.4-4.2-1c-0.9-1.4-0.4-3.3,1-4.2c0,0,0.1-0.1,0.2-0.1l0.7-0.4l-0.7-0.4
			c-1.5-0.8-2-2.6-1.2-4.1c0.8-1.5,2.6-2,4.1-1.2c0.1,0,0.1,0.1,0.2,0.1l0.7,0.4v-0.8c-0.1-1.7,1.2-3.1,2.9-3.2
			c1.7-0.1,3.1,1.2,3.2,2.9c0,0.1,0,0.2,0,0.2v0.8l0.7-0.4c1.5-0.7,3.3-0.1,4.1,1.4c0.7,1.4,0.2,3-1.1,3.9l-0.7,0.4L134.7,88.7z"/>
		<path class="st1" d="M197.8,103.5v-3c0.2-11.7-9.2-21.4-20.9-21.6c-11.7-0.2-21.4,9.2-21.6,20.9c0,0.2,0,0.4,0,0.6v3
			c-3.4,0-6.1,2.7-6.1,6.1v30.4c0,3.3,2.7,6.1,6.1,6.1h42.5c3.3,0,6.1-2.7,6.1-6.1v-30.4C203.9,106.2,201.1,103.5,197.8,103.5z
			 M179.6,126.8v4c-0.1,1.7-1.5,3-3.2,2.9c-1.6-0.1-2.9-1.3-2.9-2.9v-4c-1.9-1-3-3-3-5.1c0-3.3,2.7-6.1,6.1-6.1
			c3.4,0,6.1,2.7,6.1,6.1C182.6,123.8,181.4,125.8,179.6,126.8z M185.6,103.5h-18.2v-3c-0.1-5,3.9-9.2,8.9-9.3
			c5-0.1,9.2,3.9,9.3,8.9c0,0.1,0,0.3,0,0.4V103.5z"/>
	</g>
</g>
</svg>
