<?xml version="1.0" encoding="utf-8"?>
<!-- Generator: Adobe Illustrator 25.4.1, SVG Export Plug-In . SVG Version: 6.00 Build 0)  -->
<svg version="1.1" id="Layer_1" xmlns="http://www.w3.org/2000/svg" xmlns:xlink="http://www.w3.org/1999/xlink" x="0px" y="0px"
	 viewBox="0 0 262 207" style="enable-background:new 0 0 262 207;" xml:space="preserve">
<style type="text/css">
	.st0{fill:none;}
	.st1{fill:#ffffff;}
</style>
<rect x="27.5" class="st0" width="207" height="207"/>
<g>
	<path class="st1" d="M196.2,148.7h-5.9v-23.9c0-3.6-2.9-6.5-6.5-6.5c-3.6,0-6.5,2.9-6.5,6.5v23.9H83.2v-58h8.2
		c3.6,0,6.5-2.9,6.5-6.5c0-3.6-2.9-6.5-6.5-6.5H76.7c-3.6,0-6.5,2.9-6.5,6.5v64.5h-5.9c-3.6,0-6.5,2.9-6.5,6.5
		c0,3.6,2.9,6.5,6.5,6.5h131.9c3.6,0,6.5-2.9,6.5-6.5C202.7,151.6,199.8,148.7,196.2,148.7z"/>
	<path class="st1" d="M138.1,94.1H164v13c0,2.6,1.5,4.9,3.9,5.9c0.8,0.4,1.7,0.5,2.6,0.5c1.6,0,3.2-0.6,4.4-1.8L202.5,86
		c1.3-1.2,2-2.9,2-4.7s-0.7-3.5-2-4.7l-27.6-25.9c-1.9-1.8-4.6-2.2-7-1.2c-2.4,1-3.9,3.4-3.9,5.9v13.2h-32.6
		c-9.3,0-16.9-7.6-16.9-16.9l0,0v-0.8c0-2.8-2.3-5.1-5.1-5.1c-2.6,0-4.8,2-5,4.6l0,0v0.4v3.9v5.6C104.3,79,119.5,94.1,138.1,94.1z"
		/>
</g>
</svg>
