<?xml version="1.0" encoding="utf-8"?>
<!-- Generator: Adobe Illustrator 16.0.0, SVG Export Plug-In . SVG Version: 6.00 Build 0)  -->
<!DOCTYPE svg PUBLIC "-//W3C//DTD SVG 1.1//EN" "http://www.w3.org/Graphics/SVG/1.1/DTD/svg11.dtd">
<svg version="1.1" id="Layer_1" xmlns="http://www.w3.org/2000/svg" xmlns:xlink="http://www.w3.org/1999/xlink" x="0px" y="0px"
	 width="512px" height="512px" viewBox="0 0 512 512" enable-background="new 0 0 512 512" xml:space="preserve">
<g>
	<g>
		<path fill="#3B39CA" d="M197.324,85.336v383.988c0,14.723-11.941,26.668-26.66,26.668c-2.988,0-5.762-0.426-8.535-1.281
			L34.132,452.047C23.679,448.418,16,438.395,16,426.664V42.676c0-14.723,11.945-26.668,26.668-26.668
			c2.984,0,5.758,0.425,8.531,1.281l127.996,42.664C189.644,63.582,197.324,73.604,197.324,85.336L197.324,85.336z M197.324,85.336"
			/>
		<path fill="#64B5F6" d="M157.074,509.879l-128.168-42.73C11.605,461.176,0,444.898,0,426.664V42.676
			C0,14.578,27.328-6.778,56.257,2.121l128.164,42.729c17.297,5.974,28.902,22.25,28.902,40.485v383.988
			c0,23.531-19.133,42.668-42.66,42.668C166.097,511.992,161.765,511.332,157.074,509.879L157.074,509.879z M32,42.676v383.988
			c0,4.543,3.031,8.766,7.188,10.219l127.637,42.555c6.934,2.09,14.504-2.879,14.504-10.113V85.336
			c0-4.543-3.027-8.766-7.188-10.219L46.484,32.586c-1.277-0.406-2.473-0.578-3.816-0.578C36.777,32.008,32,36.785,32,42.676
			L32,42.676z M32,42.676"/>
		<path d="M495.984,240h-202.66c-8.832,0-16-7.168-16-16s7.168-16,16-16h202.66c8.832,0,16,7.168,16,16S504.816,240,495.984,240
			L495.984,240z M495.984,240"/>
		<path d="M415.988,319.996c-4.098,0-8.191-1.555-11.309-4.688c-6.25-6.255-6.25-16.387,0-22.637l68.691-68.691l-68.691-68.691
			c-6.25-6.25-6.25-16.383,0-22.633c6.254-6.254,16.387-6.254,22.637,0l79.996,79.996c6.25,6.25,6.25,16.383,0,22.633l-79.996,80
			C424.18,318.441,420.086,319.996,415.988,319.996L415.988,319.996z M415.988,319.996"/>
	</g>
	<path d="M170.664,511.992c-4.566,0-8.898-0.641-13.227-1.984L29.054,467.234C11.585,461.133,0,444.855,0,426.664V42.676
		C0,19.144,19.136,0.008,42.667,0.008c4.563,0,8.895,0.64,13.227,1.984l128.379,42.772c17.469,6.103,29.051,22.379,29.051,40.571
		v383.988C213.324,492.855,194.191,511.992,170.664,511.992L170.664,511.992z M42.667,32.008C36.8,32.008,32,36.808,32,42.676
		v383.988c0,4.543,3.051,8.766,7.402,10.281l127.781,42.578c0.918,0.297,2.113,0.469,3.48,0.469c5.867,0,10.664-4.801,10.664-10.668
		V85.336c0-4.543-3.051-8.766-7.402-10.282L46.144,32.476C45.226,32.18,44.031,32.008,42.667,32.008L42.667,32.008z M42.667,32.008"
		/>
	<path d="M325.32,170.672c-8.832,0-15.996-7.168-15.996-16V58.676c0-14.7-11.965-26.668-26.664-26.668H42.667
		c-8.832,0-16-7.168-16-16s7.168-16,16-16H282.66c32.359,0,58.66,26.304,58.66,58.668v95.996
		C341.32,163.504,334.152,170.672,325.32,170.672L325.32,170.672z M325.32,170.672"/>
	<path d="M282.66,447.992h-85.336c-8.832,0-15.996-7.164-15.996-15.996s7.164-16,15.996-16h85.336
		c14.699,0,26.664-11.969,26.664-26.668v-95.996c0-8.832,7.164-16,15.996-16s16,7.168,16,16v95.996
		C341.32,421.691,315.02,447.992,282.66,447.992L282.66,447.992z M282.66,447.992"/>
</g>
</svg>
