<?xml version="1.0" encoding="utf-8"?>
<!-- Generator: Adobe Illustrator 16.0.0, SVG Export Plug-In . SVG Version: 6.00 Build 0)  -->
<!DOCTYPE svg PUBLIC "-//W3C//DTD SVG 1.1//EN" "http://www.w3.org/Graphics/SVG/1.1/DTD/svg11.dtd">
<svg version="1.1" id="Layer_1" xmlns="http://www.w3.org/2000/svg" xmlns:xlink="http://www.w3.org/1999/xlink" x="0px" y="0px"
	 width="140px" height="224px" viewBox="0 0 140 224" enable-background="new 0 0 140 224" xml:space="preserve">
<g>
	<path fill="#F3F3F1" d="M99.332,218.668"/>
	<path fill="#3C39CB" stroke="#000000" stroke-width="9" stroke-miterlimit="10" d="M27.664,216h84.672
		c4.895,0,9.164-3.328,10.348-8.086l8.648-34.582H8.668l8.648,34.582C18.5,212.672,22.77,216,27.664,216L27.664,216z M27.664,216"/>
	<g>
		<path d="M123,74.88V18.668C123,8.375,114.961,0,104.668,0H35.332C25.039,0,17,8.375,17,18.668V74.88C8,76.18,1,83.946,1,93.332v80
			c0,0.664-0.092,1.313,0.068,1.941l8.566,34.594c2.082,8.32,9.444,14.133,18.03,14.133h84.672c8.574,0,16.031-5.813,18.113-14.133
			l8.482-34.594c0.148-0.629,0.068-1.277,0.068-1.941v-80C139,83.946,132,76.18,123,74.88z M35.332,16h69.336
			c1.469,0,2.332,1.195,2.332,2.668V75H33V18.668C33,17.195,33.863,16,35.332,16z M19.332,91h101.336
			c1.469,0,2.332,0.863,2.332,2.332V165H17V93.332C17,91.863,17.863,91,19.332,91z M112.336,208H27.664
			c-1.226,0-2.293-0.998-2.594-2.182L18.911,181h102.178l-6.159,24.818C114.629,207.002,113.563,208,112.336,208z"/>
		<rect x="81" y="35" width="16" height="16"/>
		<rect x="43" y="35" width="16" height="16"/>
	</g>
</g>
</svg>
