<svg xmlns="http://www.w3.org/2000/svg" viewBox="0 0 305.38 293.04"><defs><style>.cls-1{fill:#f4ba08;stroke:#f4ba08;stroke-miterlimit:10;stroke-width:20px;}</style></defs><g id="레이어_2" data-name="레이어 2"><g id="Capa_1" data-name="Capa 1"><path class="cls-1" d="M167.55,19.24l31.26,63.33a16.59,16.59,0,0,0,12.47,9.07l69.9,10.15a16.57,16.57,0,0,1,9.18,28.26l-50.57,49.3A16.58,16.58,0,0,0,235,194L247,263.63a16.57,16.57,0,0,1-24,17.47L160.4,248.23a16.61,16.61,0,0,0-15.42,0L82.47,281.1a16.58,16.58,0,0,1-24-17.47L70.36,194a16.57,16.57,0,0,0-4.76-14.67L15,130.05a16.57,16.57,0,0,1,9.18-28.26L94.1,91.64a16.6,16.6,0,0,0,12.48-9.07l31.25-63.33A16.57,16.57,0,0,1,167.55,19.24Z"/></g></g></svg>